HIERARCHY
ROOT Hips
{
  OFFSET 82.4667 89.9619 26.1077
  CHANNELS 6 Xposition Yposition Zposition Zrotation Xrotation Yrotation
  JOINT RightUpLeg
  {
    OFFSET -9.27038 -1.54558 0.0453971
    CHANNELS 3 Zrotation Xrotation Yrotation
    JOINT RightLeg
    {
      OFFSET 0.0218216 -41.8568 0.0565267
      CHANNELS 3 Zrotation Xrotation Yrotation
      JOINT RightFoot
      {
        OFFSET -2.61527 -40.3658 4.3055
        CHANNELS 3 Zrotation Xrotation Yrotation
        End Site
        {
          OFFSET 0 -7.69 17.5
        }
      }
    }
  }
  JOINT LeftUpLeg
  {
    OFFSET 9.31104 -1.67858 -0.0958947
    CHANNELS 3 Zrotation Xrotation Yrotation
    JOINT LeftLeg
    {
      OFFSET 0.0744558 -41.8745 -0.00265972
      CHANNELS 3 Zrotation Xrotation Yrotation
      JOINT LeftFoot
      {
        OFFSET 0.764134 -42.2473 -6.08411
        CHANNELS 3 Zrotation Xrotation Yrotation
        End Site
        {
          OFFSET 0 -7.69 17.5
        }
      }
    }
  }
  JOINT Spine
  {
    OFFSET 0.0335201 14.2986 0.0503015
    CHANNELS 3 Zrotation Xrotation Yrotation
    JOINT Spine1
    {
      OFFSET 0.00718126 9.71675 0.0166211
      CHANNELS 3 Zrotation Xrotation Yrotation
      JOINT Spine2
      {
        OFFSET -0.00221265 10.1185 -0.0149284
        CHANNELS 3 Zrotation Xrotation Yrotation
        JOINT Spine3
        {
          OFFSET 0.0119342 9.71861 0.0204359
          CHANNELS 3 Zrotation Xrotation Yrotation
          JOINT Neck
          {
            OFFSET -0.0577677 10.3734 -0.0134675
            CHANNELS 3 Zrotation Xrotation Yrotation
            JOINT Head
            {
              OFFSET -0.038427 9.50555 0.0670793
              CHANNELS 3 Zrotation Xrotation Yrotation
              End Site
              {
                OFFSET 0 15.95 0
              }
            }
          }
          JOINT RightShoulder
          {
            OFFSET -3.18893 6.93477 0.0225512
            CHANNELS 3 Zrotation Xrotation Yrotation
            JOINT RightArm
            {
              OFFSET -12.7801 0.0157588 0.021745
              CHANNELS 3 Zrotation Xrotation Yrotation
              JOINT RightForeArm
              {
                OFFSET -26.4845 -0.0288118 0.0304815
                CHANNELS 3 Zrotation Xrotation Yrotation
                JOINT RightHand
                {
                  OFFSET -26.0014 -0.0133622 -0.0275046
                  CHANNELS 3 Zrotation Xrotation Yrotation
                  JOINT RightHandThumb1
                  {
                    OFFSET -2.48905 0.190105 3.12053
                    CHANNELS 3 Zrotation Xrotation Yrotation
                    JOINT RightHandThumb2
                    {
                      OFFSET -3.68274 0 0
                      CHANNELS 3 Zrotation Xrotation Yrotation
                      JOINT RightHandThumb3
                      {
                        OFFSET -2.55832 0 0
                        CHANNELS 3 Zrotation Xrotation Yrotation
                        End Site
                        {
                          OFFSET -2.194 0 0
                        }
                      }
                    }
                  }
                  JOINT RightInHandIndex
                  {
                    OFFSET -3.22368 0.508421 1.97842
                    CHANNELS 3 Zrotation Xrotation Yrotation
                    JOINT RightHandIndex1
                    {
                      OFFSET -5.21684 -0.091368 0.999158
                      CHANNELS 3 Zrotation Xrotation Yrotation
                      JOINT RightHandIndex2
                      {
                        OFFSET -3.61937 0 0
                        CHANNELS 3 Zrotation Xrotation Yrotation
                        JOINT RightHandIndex3
                        {
                          OFFSET -2.0521 0 0
                          CHANNELS 3 Zrotation Xrotation Yrotation
                          End Site
                          {
                            OFFSET -1.805 0 0
                          }
                        }
                      }
                    }
                  }
                  JOINT RightInHandMiddle
                  {
                    OFFSET -3.38211 0.517263 0.756737
                    CHANNELS 3 Zrotation Xrotation Yrotation
                    JOINT RightHandMiddle1
                    {
                      OFFSET -5.17411 -0.084 0.313895
                      CHANNELS 3 Zrotation Xrotation Yrotation
                      JOINT RightHandMiddle2
                      {
                        OFFSET -3.94947 0 0
                        CHANNELS 3 Zrotation Xrotation Yrotation
                        JOINT RightHandMiddle3
                        {
                          OFFSET -2.47579 0 0
                          CHANNELS 3 Zrotation Xrotation Yrotation
                          End Site
                          {
                            OFFSET -1.975 0 0
                          }
                        }
                      }
                    }
                  }
                  JOINT RightInHandRing
                  {
                    OFFSET -3.36516 0.537895 -0.128947
                    CHANNELS 3 Zrotation Xrotation Yrotation
                    JOINT RightHandRing1
                    {
                      OFFSET -4.63474 -0.022105 -0.478947
                      CHANNELS 3 Zrotation Xrotation Yrotation
                      JOINT RightHandRing2
                      {
                        OFFSET -3.44238 0 0
                        CHANNELS 3 Zrotation Xrotation Yrotation
                        JOINT RightHandRing3
                        {
                          OFFSET -2.3881 0 0
                          CHANNELS 3 Zrotation Xrotation Yrotation
                          End Site
                          {
                            OFFSET -1.857 0 0
                          }
                        }
                      }
                    }
                  }
                  JOINT RightInHandPinky
                  {
                    OFFSET -3.16105 0.469368 -1.20179
                    CHANNELS 3 Zrotation Xrotation Yrotation
                    JOINT RightHandPinky1
                    {
                      OFFSET -4.14105 -0.022105 -1.09053
                      CHANNELS 3 Zrotation Xrotation Yrotation
                      JOINT RightHandPinky2
                      {
                        OFFSET -2.75653 0 0
                        CHANNELS 3 Zrotation Xrotation Yrotation
                        JOINT RightHandPinky3
                        {
                          OFFSET -1.74189 0 0
                          CHANNELS 3 Zrotation Xrotation Yrotation
                          End Site
                          {
                            OFFSET -1.645 0 0
                          }
                        }
                      }
                    }
                  }
                }
              }
            }
          }
          JOINT LeftShoulder
          {
            OFFSET 3.21841 6.91393 0.016794
            CHANNELS 3 Zrotation Xrotation Yrotation
            JOINT LeftArm
            {
              OFFSET 12.7804 -0.0245419 -0.0185485
              CHANNELS 3 Zrotation Xrotation Yrotation
              JOINT LeftForeArm
              {
                OFFSET 26.4681 -0.075863 -0.0141108
                CHANNELS 3 Zrotation Xrotation Yrotation
                JOINT LeftHand
                {
                  OFFSET 25.9089 -0.067714 0.0160937
                  CHANNELS 3 Zrotation Xrotation Yrotation
                  JOINT LeftHandThumb1
                  {
                    OFFSET 2.48905 0.190105 3.12053
                    CHANNELS 3 Zrotation Xrotation Yrotation
                    JOINT LeftHandThumb2
                    {
                      OFFSET 3.68274 0 0
                      CHANNELS 3 Zrotation Xrotation Yrotation
                      JOINT LeftHandThumb3
                      {
                        OFFSET 2.55832 0 0
                        CHANNELS 3 Zrotation Xrotation Yrotation
                        End Site
                        {
                          OFFSET 2.194 0 0
                        }
                      }
                    }
                  }
                  JOINT LeftInHandIndex
                  {
                    OFFSET 3.22368 0.508421 1.97842
                    CHANNELS 3 Zrotation Xrotation Yrotation
                    JOINT LeftHandIndex1
                    {
                      OFFSET 5.21684 -0.091368 0.999158
                      CHANNELS 3 Zrotation Xrotation Yrotation
                      JOINT LeftHandIndex2
                      {
                        OFFSET 3.61937 0 0
                        CHANNELS 3 Zrotation Xrotation Yrotation
                        JOINT LeftHandIndex3
                        {
                          OFFSET 2.0521 0 0
                          CHANNELS 3 Zrotation Xrotation Yrotation
                          End Site
                          {
                            OFFSET 1.805 0 0
                          }
                        }
                      }
                    }
                  }
                  JOINT LeftInHandMiddle
                  {
                    OFFSET 3.38211 0.517263 0.756737
                    CHANNELS 3 Zrotation Xrotation Yrotation
                    JOINT LeftHandMiddle1
                    {
                      OFFSET 5.17411 -0.084 0.313895
                      CHANNELS 3 Zrotation Xrotation Yrotation
                      JOINT LeftHandMiddle2
                      {
                        OFFSET 3.94947 0 0
                        CHANNELS 3 Zrotation Xrotation Yrotation
                        JOINT LeftHandMiddle3
                        {
                          OFFSET 2.47579 0 0
                          CHANNELS 3 Zrotation Xrotation Yrotation
                          End Site
                          {
                            OFFSET 1.975 0 0
                          }
                        }
                      }
                    }
                  }
                  JOINT LeftInHandRing
                  {
                    OFFSET 3.36516 0.537895 -0.128947
                    CHANNELS 3 Zrotation Xrotation Yrotation
                    JOINT LeftHandRing1
                    {
                      OFFSET 4.63474 -0.022105 -0.478947
                      CHANNELS 3 Zrotation Xrotation Yrotation
                      JOINT LeftHandRing2
                      {
                        OFFSET 3.44238 0 0
                        CHANNELS 3 Zrotation Xrotation Yrotation
                        JOINT LeftHandRing3
                        {
                          OFFSET 2.3881 0 0
                          CHANNELS 3 Zrotation Xrotation Yrotation
                          End Site
                          {
                            OFFSET 1.857 0 0
                          }
                        }
                      }
                    }
                  }
                  JOINT LeftInHandPinky
                  {
                    OFFSET 3.16105 0.469368 -1.20179
                    CHANNELS 3 Zrotation Xrotation Yrotation
                    JOINT LeftHandPinky1
                    {
                      OFFSET 4.14105 -0.022105 -1.09053
                      CHANNELS 3 Zrotation Xrotation Yrotation
                      JOINT LeftHandPinky2
                      {
                        OFFSET 2.75653 0 0
                        CHANNELS 3 Zrotation Xrotation Yrotation
                        JOINT LeftHandPinky3
                        {
                          OFFSET 1.74189 0 0
                          CHANNELS 3 Zrotation Xrotation Yrotation
                          End Site
                          {
                            OFFSET 1.645 0 0
                          }
                        }
                      }
                    }
                  }
                }
              }
            }
          }
        }
      }
    }
  }
}
MOTION
Frames:	7
Frame Time:	0.00833333
99.3181 90.243 20.8351 24.882 -22.6023 -139.756 -7.1189 -56.8056 -4.07169 3.43663 24.9584 7.57824 6.95453 -1.64515 -2.67197 31.6907 -44.8715 42.5532 -0.0774893 19.3321 -22.1613 -9.99492 -0.989231 28.2022 -0.349033 9.357 3.89787 -0.0351487 2.39217 1.00564 -0.0715399 3.97091 1.70322 0.193366 0.0589698 -0.660911 0.193745 0.0663743 -0.662312 3.67095 1.08526 -12.178 -2.6675 -2.4747 12.915 78.6043 12.0284 66.4139 -4.51053 -17.1376 -15.8827 2.90042 -21.8172 1.29441 28.184 10.7294 19.1592 -5.96607e-15 -6.36111e-15 -10 -1.02497e-14 -3.18055e-15 -10 -3.97569e-16 3.18055e-15 -0 19.9818 0.871897 2.3964 24 0 3.18055e-15 20 6.36111e-15 9.54166e-15 -3.97569e-16 3.18055e-15 -0 20 -3.18055e-15 3.18055e-15 24 4.77083e-15 6.36111e-15 20 7.95139e-16 -3.18055e-15 -3.97569e-16 3.18055e-15 -0 19.9748 -1.02565 -2.81938 24 7.95139e-15 9.54166e-15 20 -2.38542e-15 6.36111e-15 -3.97569e-16 3.18055e-15 -0 19.7815 -3.00948 -8.30515 24 4.77083e-15 3.18055e-15 20 9.19379e-16 1.27222e-14 -9.55508 -8.1012 -17.4426 -50.9218 32.8642 -48.1734 -59.315 -81.1178 -58.54 -12.0079 -62.6411 -5.45589 -28.184 10.7294 -19.1592 -3.22962e-15 0 10 1.02497e-14 -3.18055e-15 10 5.29669e-31 9.54166e-15 -3.18055e-15 -19.9818 0.871897 -2.3964 -24 3.18055e-15 -0 -20 -5.96354e-16 1.27222e-14 5.29669e-31 9.54166e-15 -3.18055e-15 -20 -6.36111e-15 -6.36111e-15 -24 -4.77083e-15 -3.18055e-15 -20 -9.14409e-15 2.54444e-14 5.29669e-31 9.54166e-15 -3.18055e-15 -19.9748 -1.02565 2.81938 -24 7.95139e-16 3.18055e-15 -20 5.56597e-15 1.27222e-14 5.29669e-31 9.54166e-15 -3.18055e-15 -19.7815 -3.00948 8.30515 -24 -4.77083e-15 1.27222e-14 -20 3.97569e-15 6.36111e-15 
99.3181 90.2376 20.8151 24.8415 -22.5936 -139.826 -6.98702 -56.7988 -3.8997 3.40067 24.9704 7.61324 6.95283 -1.64697 -2.7179 31.7649 -44.7852 42.6959 -0.0816335 19.4012 -22.1297 -10.0077 -1.04651 28.0884 -0.358925 9.35632 3.9074 -0.0351161 2.39233 1.00556 -0.0739353 3.97093 1.7052 0.192929 0.0604111 -0.660614 0.193297 0.0668552 -0.662013 3.65777 1.10149 -12.1696 -2.66203 -2.4343 12.9269 78.6126 12.0214 66.3715 -4.50603 -17.2997 -15.8171 2.86345 -21.7186 1.2638 28.184 10.7294 19.1592 -5.15866e-15 -6.36111e-15 -10 -6.2846e-16 -1.27222e-14 -10 8.82781e-32 -3.18055e-15 1.59028e-15 19.9818 0.871897 2.3964 24 0 -0 20 3.18055e-15 -9.54166e-15 8.82781e-32 -3.18055e-15 1.59028e-15 20 -3.18055e-15 3.18055e-15 24 0 -0 20 -7.95139e-16 -6.36111e-15 8.82781e-32 -3.18055e-15 1.59028e-15 19.9748 -1.02565 -2.81938 24 4.77083e-15 3.18055e-15 20 -2.38542e-15 -3.18055e-15 8.82781e-32 -3.18055e-15 1.59028e-15 19.7815 -3.00948 -8.30515 24 3.18055e-15 6.36111e-15 20 1.09332e-15 3.18055e-15 -9.50682 -8.09362 -17.3986 -50.9439 32.8678 -48.2303 -58.433 -81.1237 -57.6529 -11.9554 -62.7298 -5.38769 -28.184 10.7294 -19.1592 5.60818e-16 -3.18055e-15 10 -7.02006e-15 3.18055e-15 10 0 3.18055e-15 -0 -19.9818 0.871897 -2.3964 -24 1.59028e-15 -6.36111e-15 -20 6.55989e-15 6.36111e-15 0 3.18055e-15 -0 -20 -3.18055e-15 -0 -24 -3.18055e-15 3.18055e-15 -20 -1.39149e-15 -6.36111e-15 0 3.18055e-15 -0 -19.9748 -1.02565 2.81938 -24 2.38542e-15 6.36111e-15 -20 -6.75868e-15 9.54166e-15 0 3.18055e-15 -0 -19.7815 -3.00948 8.30515 -24 -7.15625e-15 6.36111e-15 -20 1.03368e-14 6.36111e-15 
99.318 90.2343 20.7872 24.7889 -22.5854 -139.917 -6.81116 -56.7857 -3.68267 3.3479 24.9831 7.66875 6.95043 -1.65476 -2.77712 31.8477 -44.697 42.8481 -0.0811653 19.4862 -22.1007 -10.0269 -1.11268 27.991 -0.372882 9.35748 3.92216 -0.0352769 2.39247 1.00789 -0.0795743 3.97131 1.71059 0.192479 0.0618808 -0.66031 0.192834 0.0673453 -0.661709 3.64461 1.12614 -12.1568 -2.67261 -2.37922 12.9353 78.6291 12.016 66.3197 -4.5001 -17.5356 -15.7068 2.77711 -21.6076 1.20629 28.184 10.7294 19.1592 -3.47621e-15 3.18055e-15 -10 6.95241e-15 -6.36111e-15 -10 -7.95139e-16 0 -7.95139e-16 19.9818 0.871897 2.3964 24 -3.18055e-15 3.18055e-15 20 0 -0 -7.95139e-16 0 -7.95139e-16 20 0 -1.59028e-15 24 4.77083e-15 1.59028e-14 20 3.97569e-15 3.18055e-15 -7.95139e-16 0 -7.95139e-16 19.9748 -1.02565 -2.81938 24 1.59028e-15 6.36111e-15 20 3.18055e-15 9.54166e-15 -7.95139e-16 0 -7.95139e-16 19.7815 -3.00948 -8.30515 24 3.18055e-15 6.36111e-15 20 -3.4999e-15 -0 -9.47205 -8.0871 -17.3598 -50.9428 32.8849 -48.2992 -57.404 -81.1347 -56.6199 -11.8863 -62.8517 -5.3189 -28.184 10.7294 -19.1592 -3.22962e-15 0 10 -3.22962e-15 0 10 7.06225e-31 -6.36111e-15 6.36111e-15 -19.9818 0.871897 -2.3964 -24 4.77083e-15 3.18055e-15 -20 -7.95139e-16 -9.54166e-15 7.06225e-31 -6.36111e-15 6.36111e-15 -20 -6.36111e-15 -0 -24 0 -3.18055e-15 -20 -3.18055e-15 3.18055e-15 7.06225e-31 -6.36111e-15 6.36111e-15 -19.9748 -1.02565 2.81938 -24 -1.59028e-15 6.36111e-15 -20 1.98785e-15 3.18055e-15 7.06225e-31 -6.36111e-15 6.36111e-15 -19.7815 -3.00948 8.30515 -24 -9.54166e-15 9.54166e-15 -20 1.59028e-15 9.54166e-15 
99.3179 90.2283 20.7525 24.7258 -22.5732 -140.032 -6.58749 -56.7698 -3.41327 3.27467 25.0067 7.74618 6.94738 -1.66828 -2.84976 31.9414 -44.5917 43.0084 -0.0792144 19.5821 -22.0727 -10.0399 -1.16653 27.9243 -0.39539 9.36468 3.9561 -0.0392089 2.39254 1.01592 -0.0881113 3.97497 1.7236 0.192014 0.0633793 -0.66 0.192358 0.0678456 -0.661398 3.626 1.15571 -12.1532 -2.68808 -2.31736 12.9358 78.6506 12.0203 66.2532 -4.46951 -17.5562 -15.5969 2.75935 -21.6927 1.19675 28.184 10.7294 19.1592 -5.2263e-15 -1.59028e-14 -10 -1.34793e-14 -3.18055e-15 -10 2.38542e-15 -6.36111e-15 7.95139e-16 19.9818 0.871897 2.3964 24 -3.18055e-15 -6.36111e-15 20 3.18055e-15 6.36111e-15 2.38542e-15 -6.36111e-15 7.95139e-16 20 -6.36111e-15 1.27222e-14 24 -1.59028e-15 -9.54166e-15 20 0 3.18055e-15 2.38542e-15 -6.36111e-15 7.95139e-16 19.9748 -1.02565 -2.81938 24 0 9.54166e-15 20 3.18055e-15 6.36111e-15 2.38542e-15 -6.36111e-15 7.95139e-16 19.7815 -3.00948 -8.30515 24 3.18055e-15 1.90833e-14 20 2.55314e-15 3.18055e-15 -9.43271 -8.08806 -17.343 -50.94 32.8983 -48.3698 -56.1146 -81.154 -55.3255 -11.7313 -62.9749 -5.14187 -28.184 10.7294 -19.1592 -6.45924e-15 0 10 -5.60818e-16 3.18055e-15 10 -3.18055e-15 3.18055e-15 1.59028e-15 -19.9818 0.871897 -2.3964 -24 -6.36111e-15 3.18055e-15 -20 -1.19271e-15 1.59028e-14 -3.18055e-15 3.18055e-15 1.59028e-15 -20 -3.18055e-15 -9.54166e-15 -24 -4.77083e-15 -0 -20 0 1.90833e-14 -3.18055e-15 3.18055e-15 1.59028e-15 -19.9748 -1.02565 2.81938 -24 3.18055e-15 6.36111e-15 -20 -1.59028e-15 -0 -3.18055e-15 3.18055e-15 1.59028e-15 -19.7815 -3.00948 8.30515 -24 -4.77083e-15 -3.18055e-15 -20 -3.97569e-15 1.27222e-14 
99.3173 90.2235 20.7145 24.6494 -22.5674 -140.178 -6.30954 -56.7445 -3.07206 3.19266 25.0162 7.83654 6.94396 -1.68188 -2.93896 32.0387 -44.4536 43.1994 -0.0810179 19.6719 -22.0769 -10.0696 -1.24383 27.8642 -0.429413 9.3797 4.01528 -0.0467358 2.3925 1.02996 -0.100883 3.98358 1.74689 0.191534 0.064907 -0.659682 0.191865 0.0683571 -0.66108 3.61367 1.18159 -12.1642 -2.70954 -2.26532 12.9051 78.6734 12.0373 66.1515 -4.41564 -17.508 -15.4554 2.7515 -21.8602 1.21082 28.184 10.7294 19.1592 -4.35126e-15 -6.36111e-15 -10 2.10798e-15 -6.36111e-15 -10 0 0 -0 19.9818 0.871897 2.3964 24 -3.18055e-15 6.36111e-15 20 1.59028e-15 -0 0 0 -0 20 -3.18055e-15 1.59028e-15 24 0 3.18055e-15 20 7.95139e-16 -6.36111e-15 0 0 -0 19.9748 -1.02565 -2.81938 24 4.77083e-15 6.36111e-15 20 0 -0 0 0 -0 19.7815 -3.00948 -8.30515 24 0 -0 20 5.71506e-16 3.18055e-15 -9.39754 -8.09961 -17.357 -50.9281 32.9257 -48.4257 -54.7967 -81.1581 -54.0084 -11.5295 -63.0972 -4.91795 -28.184 10.7294 -19.1592 -0 0 10 9.12804e-15 3.18055e-15 10 -1.76556e-31 -3.18055e-15 -3.18055e-15 -19.9818 0.871897 -2.3964 -24 -1.59028e-15 6.36111e-15 -20 3.18055e-15 9.54166e-15 -1.76556e-31 -3.18055e-15 -3.18055e-15 -20 6.36111e-15 6.36111e-15 -24 6.36111e-15 6.36111e-15 -20 2.5842e-15 -0 -1.76556e-31 -3.18055e-15 -3.18055e-15 -19.9748 -1.02565 2.81938 -24 4.77083e-15 3.18055e-15 -20 3.57812e-15 -0 -1.76556e-31 -3.18055e-15 -3.18055e-15 -19.7815 -3.00948 8.30515 -24 -1.03368e-14 1.90833e-14 -20 -3.18055e-15 -3.18055e-15 
99.316 90.218 20.6698 24.5797 -22.5562 -140.335 -5.97607 -56.7206 -2.69486 3.0822 25.0297 7.95564 6.94041 -1.69474 -3.04065 32.1478 -44.3297 43.364 -0.0720183 19.7854 -22.0792 -10.1126 -1.3442 27.8359 -0.451482 9.39181 4.07029 -0.051245 2.39242 1.04339 -0.108842 3.99072 1.76934 0.189549 0.0664643 -0.659357 0.189857 0.0688809 -0.660754 3.57686 1.21431 -12.1659 -2.74443 -2.21725 12.8772 78.6905 12.0769 66.0146 -4.39403 -17.7692 -15.2345 2.63756 -21.7618 1.15914 28.184 10.7294 19.1592 -4.93175e-16 6.36111e-15 -10 1.05399e-15 -3.18055e-15 -10 3.18055e-15 0 -0 19.9818 0.871897 2.3964 24 -3.18055e-15 3.18055e-15 20 0 -3.18055e-15 3.18055e-15 0 -0 20 -3.18055e-15 4.77083e-15 24 -4.77083e-15 -3.18055e-15 20 7.95139e-16 -0 3.18055e-15 0 -0 19.9748 -1.02565 -2.81938 24 1.59028e-15 3.18055e-15 20 -4.77083e-15 1.27222e-14 3.18055e-15 0 -0 19.7815 -3.00948 -8.30515 24 -1.59028e-15 3.18055e-15 20 5.2181e-15 -6.36111e-15 -9.41694 -8.08012 -17.3253 -50.8321 32.9878 -48.5279 -53.3882 -81.1366 -52.6146 -11.2629 -63.2432 -4.64347 -28.184 10.7294 -19.1592 2.10798e-15 6.36111e-15 10 5.60818e-16 -3.18055e-15 10 -3.18055e-15 3.18055e-15 1.59028e-15 -19.9818 0.871897 -2.3964 -24 7.95139e-15 6.36111e-15 -20 -4.07509e-15 -3.18055e-15 -3.18055e-15 3.18055e-15 1.59028e-15 -20 9.54166e-15 -6.36111e-15 -24 1.59028e-15 -3.18055e-15 -20 2.38542e-15 -3.18055e-15 -3.18055e-15 3.18055e-15 1.59028e-15 -19.9748 -1.02565 2.81938 -24 0 3.18055e-15 -20 4.37326e-15 6.36111e-15 -3.18055e-15 3.18055e-15 1.59028e-15 -19.7815 -3.00948 8.30515 -24 -1.03368e-14 -0 -20 -5.56597e-15 -6.36111e-15 
99.3144 90.2147 20.6193 24.502 -22.5642 -140.512 -5.59847 -56.7016 -2.27523 2.9417 25.0368 8.11248 6.93868 -1.71161 -3.15844 32.2516 -44.206 43.5256 -0.0571759 19.8999 -22.0877 -10.1547 -1.45865 27.8291 -0.48322 9.39604 4.12871 -0.058191 2.39238 1.05728 -0.120669 3.99163 1.79235 0.186155 0.0680516 -0.659025 0.186459 0.0706499 -0.66042 3.52855 1.24695 -12.1567 -2.77668 -2.18032 12.8387 78.683 12.1296 65.8728 -4.37122 -18.0831 -15.0097 2.49974 -21.6683 1.11308 28.184 10.7294 19.1592 -1.04286e-14 9.54166e-15 -10 -2.17563e-15 -3.18055e-15 -10 3.18055e-15 0 -7.95139e-16 19.9818 0.871897 2.3964 24 9.54166e-15 3.18055e-15 20 -1.59028e-15 -3.18055e-15 3.18055e-15 0 -7.95139e-16 20 -3.18055e-15 -3.18055e-15 24 -4.77083e-15 -6.36111e-15 20 -3.18055e-15 -1.27222e-14 3.18055e-15 0 -7.95139e-16 19.9748 -1.02565 -2.81938 24 3.18055e-15 -6.36111e-15 20 -7.95139e-16 -0 3.18055e-15 0 -7.95139e-16 19.7815 -3.00948 -8.30515 24 -7.95139e-15 -6.36111e-15 20 -9.44227e-16 -1.59028e-14 -9.44571 -8.05564 -17.2789 -50.7175 33.0734 -48.6543 -51.8491 -81.1168 -51.0951 -10.9198 -63.3857 -4.3021 -28.184 10.7294 -19.1592 -8.56722e-15 -6.36111e-15 10 8.14169e-15 -9.54166e-15 10 3.18055e-15 -3.18055e-15 -3.18055e-15 -19.9818 0.871897 -2.3964 -24 1.11319e-14 1.27222e-14 -20 1.49089e-16 6.36111e-15 3.18055e-15 -3.18055e-15 -3.18055e-15 -20 3.18055e-15 -6.36111e-15 -24 -7.95139e-15 -1.27222e-14 -20 -7.55382e-15 -1.27222e-14 3.18055e-15 -3.18055e-15 -3.18055e-15 -19.9748 -1.02565 2.81938 -24 0 -0 -20 -2.38542e-15 -1.27222e-14 3.18055e-15 -3.18055e-15 -3.18055e-15 -19.7815 -3.00948 8.30515 -24 3.97569e-15 3.18055e-15 -20 1.59028e-15 6.36111e-15 
